<?xml version="1.0" encoding="utf-8"?>
<!-- Generator: Adobe Illustrator 21.0.0, SVG Export Plug-In . SVG Version: 6.00 Build 0)  -->
<svg version="1.1" id="Capa_1" xmlns="http://www.w3.org/2000/svg" xmlns:xlink="http://www.w3.org/1999/xlink" x="0px" y="0px"
	 viewBox="0 0 512 512" style="enable-background:new 0 0 512 512;" xml:space="preserve">
<style type="text/css">
	.st0{fill:#FFFFFF;}
</style>
<g>
	<g>
		<path class="st0" d="M234.7,511.9c79.3-3.1,154-27.5,188.1-104.6c26.8-60.5,20.1-134.5-30.4-175c-9.9-7.9-17.8-13-16.4-14.1
			c1-0.7,1.7-1.5,2.1-2.3C388.4,192.5,489.2-6.1,394.2,0.3c-33.2,2.2-52.4,43.9-66,68.9c-10.6,19.5-20.2,39.8-29,60.3
			c-5,11.6-13.2,12.1-18.8,1.1c-3.4-6.7-6.8-13.3-10.3-19.9c-19.2-36.2-42.1-85.8-79-107.2c-20.9-12.2-39.4,10.7-41.7,29.1
			c-4.3,36.5,26.6,79,41.3,110.3c8.1,17.3,16.1,34.7,23.9,52.1c5.2,11.5,1.7,31,7.4,42.2c9,17.7,39.8,35.6,64.3,47.7
			c11.3,5.6,11.6,14.6,2.7,23.6c-6.2,6.3-11.2,13.4-15.4,21.2c-6,11.1-10.2,10.9-13.6-1.2c-10.5-36.6-32-76.1-46.1-90.5
			c-16.8-17.3-34.6-20.5-56.5-9.4c-19.3,9.8-30.5,26.7-34.3,46c-2.4,12.4-11.5,25.2-21.3,33.2c-20,16.3-30.7,46.5-27.6,74.2
			C83.9,466.4,152.3,515.1,234.7,511.9z M319.6,129.2c0.1-0.1,0.2-0.2,0.3-0.3c4.2-4.3,7-8.9,6.2-10.4c-0.3-0.7-1-0.9-1.7-0.9
			c21-49.8,50.7-111.6,66.1-105.5c52.5,20.7,4.9,125.8-21.5,180.3c-5.5,11.4-19.4,16.5-31.5,12.9c-0.2,0-0.3-0.1-0.5-0.1
			c2-0.3,3.7-0.9,4.7-1.9c2.1-1.9-2-4.1-9-3.5c-2.7,0.2-4.9,0.8-6.7,1.3c-8.5-3.8-15.9-9.1-18.4-14.2c1.5-0.9,3-2,4.7-3.6
			c4.5-4.2,7.5-9.1,6.7-10.9c-0.8-1.8-5.2,0.1-9.7,4.4c-1.3,1.2-2.4,2.5-3.4,3.7c-0.9-7.8,0.4-18.6,3.9-27.5
			C312.7,146.1,316,137.9,319.6,129.2z M179.6,17.8c0.3,0.2,0.6,0.5,0.9,0.8c-3.6,1.6-6.3,4.7-8.1,8.1
			C174.3,20.2,178,16.6,179.6,17.8z M225.3,164.3c1.7-0.6,3.5-1.5,5.2-3.3c4.7-4.7,7-11.8,5.2-15.9s-7.2-3.6-11.8,1.2
			c-1.7,1.8-3,3.9-4,6.1c-1.9-4.2-3.8-8.4-5.8-12.5c1.4-1.3,2.9-2.9,4.6-4.7c4.6-4.8,8.3-8.8,8.3-8.9c-0.1-0.2-3.9,3.6-8.5,8.3
			c-1.7,1.8-3.3,3.4-4.6,4.8c-0.4-0.8-0.7-1.5-1-2.3c1.5-1,3.2-2.3,4.9-4.1c4.7-4.7,6.9-11.7,5.1-15.6c-1.9-3.9-7.2-3.4-11.9,1.3
			c-1.7,1.7-3.1,3.5-4.3,5.3c-4.3-9.1-8.7-18.3-13-27.4c1.3,1.3,5.7-1.2,10.4-5.9c5-5,8.3-10.5,7.4-12.4c-0.9-1.9-5.7,0.7-10.7,5.8
			c-4.7,4.7-7.8,9.8-7.4,11.9c-2.4-5.1-4.8-10.3-7.3-15.4c-1.9-4-4-8.6-6-13.4c2.1,1,6.2-0.9,10.4-5.1c5.2-5.2,8.4-11.8,7.3-14.8
			c-1.1-3-6.1-1.3-11.4,3.9c-4.3,4.3-7.2,9.4-7.6,12.8c-3.5-8.6-6.5-18-7.3-27.1c0,0,0-0.1,0-0.1c1.9,2,6.1,0.9,10.6-3.5
			c2.5-2.4,4.1-6.1,4.6-9.4c5.1,4.9,9.6,10.5,14,15.9c28,35.1,50.1,76.4,69.6,118.2c5.4,11.4,9.5,21.2,9.7,21.6
			c0.2,0.4,2.1,4.2,4.1,8.7c2,4.5-6.6,7.4-19.1,9c-5.4,0.7-11,0-16.1-1.8c4.1-4.9,6.8-9.7,5.9-11.5c-1-2.1-5.6-0.2-10.4,4.4
			c-1.1,1-2.1,2.1-2.9,3.2c-3.3-2.4-6-5.5-7.8-9.4C230.9,176.3,228.1,170.3,225.3,164.3z M258,409.5c0.2,5.6,0.5,11.2,1.1,16.6
			c0.9,8.8,23.1,3.7,22.1-5.9c-2.5-24.4-1.9-54.3,7.9-78.9c2.6-1.3,5.9-3.7,9.3-7.2c6.3-6.3,10.9-12.6,10.4-14.2
			c-0.4-1.1-0.7-2.1-1-2.9c-0.1-0.3-0.2-0.6-0.3-0.9c-0.2-0.4-3.6,2.3-7.9,6.1c6.5-8.8,15-16.1,25.9-21.1c-0.1,0.3-0.4,0.7-0.4,0.9
			c0.4,1.2,3.1-0.2,6.3-2.9c0.5-0.4,1.2-1,1.8-1.6c0.6-0.4,1.1-0.9,1.7-1.5c3.5-3.1,8.1-7.2,11.8-11c5.1-5.2,8.5-9.8,7.5-10.2
			c-0.9-0.4-8,5-15.8,12.1c-0.6,0.5-1,1-1.6,1.5c-0.4-0.5-1-0.9-1.8-1.2c-8-3.5-34.6-13.3-57.3-25.9c-0.5-1.1-1.8-3.3-3.6-5.8
			c-2.4-3.3-5.6-4.9-6.9-3.7c-0.8,0.8-0.4,2.3,0.9,3.8c-5.9-3.8-11.2-7.7-15.5-11.7c0.7-0.3,1.3-0.6,2-1.2c1.8-1.7,2.8-3.6,2.1-4.3
			c-0.4-0.4-0.8-0.8-1.2-1.1c-0.2-0.2-0.4-0.3-0.6-0.4c-0.3-0.2-2,1-3.8,2.7c-0.6,0.6-0.8,1.2-1.2,1.7c0,0-0.1-0.1-0.1-0.1
			c-8.6-9.3-4.8-21.3-3.2-22.8c1.6-1.5,10.9-8.3,23.5-8c1,0,2,0.1,3,0.1c12.6,0.6,23.9,3.8,25.6,4.1c1.7,0.3,10.4,1.7,19.3,4
			c7.4,2,13.2,3.7,16,4.4c114.8,29.8,96.8,191.1,15.5,247.4c-24.7,17.1-53.8,26.5-83.2,29.1c1.3-0.4,0.7-0.9-2.2-1.4
			c-4.1-0.8-8.2-0.7-9.2,0.3c-0.9,0.9-1,1.6-0.6,1.7c-15.1,0.3-30.1-1.2-44.5-4.4c6.4,0.5,12.4-0.8,14.5-3c2.7-2.9,1.1-6.9-3.4-9.2
			c-4.6-2.3-10.1-5.1-12.5-5.9c-2.4-0.9-7.7,1.6-11.8,5.5c-3.4,3.2-1.8,7.4,3.3,10.1c-33-9.3-62.2-27.8-81.1-54.6
			c1.7-1,3.5-2.5,5.5-4.4c4.5-4.6,7.4-9.3,6.6-10.7c-0.8-1.3-5.2,1-9.9,5.3c-2,1.9-3.7,3.9-4.9,5.6c-3.8-5.9-7.1-12.2-9.9-18.9
			c2.2-0.2,4.9-1.3,7.5-3.7c4.9-4.4,7.6-11.1,6.3-15c-1.2-3.9-6.2-3.4-11.2,1.4c-2.6,2.4-4.7,5.4-5.9,8.3c-4.8-14.8-7-31.2-5.9-49.1
			c0.1-1.2,0.2-2.3,0.4-3.4c1.4,0.4,3.4-0.4,5.8-2.6c2.7-2.5,5.4-5.1,8.1-7.6c1.4-1.4,2.8-2.8,4.1-4.3c2.3-2.3,6-14.8,13.7-24.8
			c0.6-0.8,1.3-1.5,2-2.2c6-0.7,12.6,0.2,19.6,3.5c19.5,8.9,44.9,49.7,54.7,68.5c0.9,1.7,1.6,3.3,2.2,4.7c1.1,2.7,1,5.6,1.1,6.4
			c0.1,0.9-0.7,15.1-13.3,14c-9.2-0.8-20.7-6.6-27.3-15.2c-8-10.5-14.8-22.5-20.7-34.3c-4.3-8.7-26-1.9-22.1,5.9
			c15.7,31.4,46.6,88.9,88,61.4c4.9-3.3,8.7-7,11.4-11.1c4.9-7.4,12.5-13.7,20.6-15.8C253.3,398.4,257.7,400.3,258,409.5z
			 M145.5,273.7c4.3-26.2,19.7-51.5,44.9-30.2c24.7,20.9,37.1,54.8,47.3,84.4c2.3,6.7,9.6,28.3,9.3,43.7c-1.3,0.5-2.9,1.5-4.5,3
			c-2.8,2.6-4.8,5.2-5.4,6.6c-5.5-2.6-11.9-9.2-15-15.5c-5.8-11.7-14.1-23.2-23.3-33.4c2.5,0,5.4-1.2,8-3.5c4.5-4.1,6-9.9,3.1-12.7
			c-2.8-2.8-8.6-1.9-12.8,2c-2.6,2.4-3.9,5.5-4,8.3c-12.7-12.9-26.1-22.9-36.1-26.6c-1.7-0.7-3.5-1.2-5.2-1.6
			c3.7-1.9,6.7-3.5,8.3-5.1c4.1-4.3,7-7.8,6.4-7.9s-1.4-3.1-1.5-6.6c0-3.6-7.1,0.8-16.1,9.7c-0.9,0.9-1.8,1.8-2.7,2.7
			C145.1,286.5,144.4,280.4,145.5,273.7z M122.5,314.7c-6.1,6.1-12.5,12.4-18.5,18.4c-0.3,0.4-0.7,0.7-1,1.1
			C107.5,325.3,114.2,318.2,122.5,314.7z"/>
		<path class="st0" d="M176.9,381.1c3.6-3.6,6.2-7.1,5.8-7.7c-0.4-0.6-3.5,1.5-6.9,4.7c-3.4,3.2-6,6.6-5.8,7.7
			C170.2,386.8,173.3,384.7,176.9,381.1z"/>
		<path class="st0" d="M332.7,137.1c0.4-1-4.6,3.5-11.1,10.2c-6.6,6.7-6.9,7.5-0.7,1.9C327,143.6,332.3,138.1,332.7,137.1z"/>
		<path class="st0" d="M363.3,49.8c9.1-8.8,16.6-16.2,16.8-16.6c0.2-0.4-6.9,6.5-15.9,15.4c-1.7,1.6-3.3,3.3-5,4.9
			c-9,8.9-8.9,9,0.2,0.2C360.7,52.4,362,51.1,363.3,49.8z"/>
		<path class="st0" d="M170.3,361.6c1.9-1.7,2.1-5.3,0.6-8.1c-0.9-1.7-1.8-3.4-2.7-5c-0.2-0.3-0.4-0.6-0.7-0.8
			c-0.4-0.4-1.1,3.3-1,8.2C166.6,360.7,168.5,363.3,170.3,361.6z"/>
		<path class="st0" d="M312.3,271.8c0.2,0.4,2.8-1.6,5.8-4.5s5.1-5.4,4.6-5.6c-0.5-0.2-3.1,1.8-5.9,4.5
			C314.1,268.9,312,271.4,312.3,271.8z"/>
		<path class="st0" d="M216.7,340.2c-3.1,2.9-5.5,5.2-5.2,5.3c0.2,0.1,2.8-2.3,5.6-5.2C220,337.4,219.9,337.4,216.7,340.2z"/>
		<path class="st0" d="M345.4,102.9c1.3-1.4,3.5-5,4.9-8.2c1.4-3.1-0.2-3.1-3.6,0.2c-3.4,3.2-5.5,6.9-4.9,8.2
			C342.4,104.3,344,104.3,345.4,102.9z"/>
		<path class="st0" d="M288.1,419c3.8-0.2,8.2-3.3,10.2-5.4c2-2.1,3.7-4.1,3.8-4.4c0-0.2,0.1-0.4,0.1-0.5c-0.3-2.9-0.6-6-0.7-9.1
			c-0.3-5-0.6-9.1-0.9-9.1c-0.3,0-1,7.5-5.9,14.9c-2.7,4.1-6.5,7.8-11.4,11.1c-0.3,0.2-0.5,0.3-0.8,0.4
			C282,417.2,284.3,419.2,288.1,419z"/>
		<path class="st0" d="M176.4,475.6c3.6-3.6,3.5-3.7-0.1-0.1C172.7,479.1,172.8,479.2,176.4,475.6z"/>
		<path class="st0" d="M153.1,458.1c-4.5,4.1-5.3,9.7-1.8,12.4c3.6,2.6,10,1.2,14.2-3c4.2-4.2,4.8-9.5,1.5-12
			C163.7,452.9,157.5,454,153.1,458.1z"/>
	</g>
</g>
</svg>
