<?xml version="1.0" encoding="utf-8"?>
<!-- Generator: Adobe Illustrator 21.0.0, SVG Export Plug-In . SVG Version: 6.00 Build 0)  -->
<svg version="1.1" id="Capa_1" xmlns="http://www.w3.org/2000/svg" xmlns:xlink="http://www.w3.org/1999/xlink" x="0px" y="0px"
	 viewBox="0 0 512 512" style="enable-background:new 0 0 512 512;" xml:space="preserve">
<style type="text/css">
	.st0{fill:#FFFFFF;}
</style>
<g>
	<path class="st0" d="M509.9,231.4c-0.8-53.9-2.9-132.2-32.1-179.1c-27.7-44.4-94.4-35.1-138.2-34.6c-80,1-160.8-26.5-240.7-14.7
		C33.8,12.6,13.8,54.3,6.3,116.1c-7.3,60-5.7,135.2,8.6,194.1c10.8,44.6,61.4,44.8,99.5,47c-7.8,46.5-4.9,95.7-5,142.7
		c0,10,13.4,16.5,20.5,8.5c46.5-52.8,103.8-94.8,146.8-150.8c59,1.9,119.5,15.4,177.8,0.9C508,345.3,510.5,275.1,509.9,231.4z
		 M468.8,83.2c-19.5-15.5-41.3-29.5-62.4-42.7c18.6,2.1,35.8,7.5,48.5,20.4C460.6,66.7,465.2,74.4,468.8,83.2z M386.2,39.4
		c30,22.2,58.3,49.3,90.1,68.6c0.4,1.7,0.8,3.5,1.1,5.3c-18.2-15.2-46.7-24.4-66.7-34.8c-21.4-11.1-48.7-22-68.6-37.6
		C356,40.5,371.2,39.3,386.2,39.4z M328.8,41.2c1.2,0,2.4,0,3.7,0c15.4,17.9,38.3,29.1,58.5,40.7c26.1,15,57.4,39.8,86.7,47.1
		c0.8,0.2,1.6,0.2,2.3,0.1c0.8,6.1,1.6,12.3,2.1,18.4c-0.1,0-0.2,0.1-0.3,0.1c-0.4-0.6-0.9-1.2-1.8-1.7c-6.8-4.4-13.6-8.8-20.4-13.3
		c-13.4-8.8-26.3-16.1-40.8-23c-53.5-25.5-107.9-49-161.4-74.3C281.1,38.5,304.9,41,328.8,41.2z M251.5,34.7
		c-1.2,1.1-1.5,3.2,0.4,4.3c58.4,33.8,121.4,59.4,179.6,93.3c9.5,5.5,35.9,32.4,51.8,30.9c0.4,5.9,0.6,11.7,0.9,17.3
		c-28.7-31.8-86.2-53.4-116-68.3c-58-29-122-50.8-177.4-85.2C211.1,29.1,231.3,32,251.5,34.7z M33.6,283.5
		c26.1,17.2,51.6,35.3,76.6,54.1C72.1,328.9,40.8,330.8,33.6,283.5z M133.6,469.4c0.1-10,0.2-19.9,0.3-29.9c4.3,4.2,9.1,7.8,14,11.4
		c0.9,0.6,1.6,1.4,2.5,2C144.8,458.3,139.1,463.8,133.6,469.4z M154.6,448.8c-0.5-0.3-1-0.5-1.4-0.8c-6.5-4.1-13.2-8.4-19.1-13.5
		c0,0,0,0,0,0c0.1-9.6,0.2-19.3,0.3-28.9c11.9,9.5,23.9,18.8,35.2,29.1C164.6,439.4,159.6,444.1,154.6,448.8z M177,427.9
		c-12.4-12.6-27.7-22.4-42.5-32.3c0.2-12.7,0.2-25.5,0.4-38.2c0-0.4-0.1-0.7-0.1-1.1c21.6,16.7,43,33.8,64.2,50.9
		C191.7,414.2,184.3,421,177,427.9z M208.9,397.6C152.7,352.2,95.5,309,32.4,274c-1.8-16.3-3-32.8-3.9-49.5
		c74.7,41.2,132.8,101.9,200.6,152.4C222.5,384,215.8,390.8,208.9,397.6z M258.1,343.2c-6.2,8.2-12.8,15.9-19.6,23.6
		C178.1,310,106.4,247.8,28.2,218.3c-0.5-10.8-0.8-21.6-0.9-32.4c83.5,42.7,152.6,108.7,233.5,154.7
		C259.8,341.3,258.9,342.1,258.1,343.2z M280.2,333.8c-80.8-55.7-163-117.8-253-156.6c0-12.7,0.3-25.3,0.8-37.9
		c103.8,60.7,199.6,133.6,301.1,198C312.8,336,296.5,334.5,280.2,333.8z M362.6,340.1C251.7,270,145.3,192,28.4,131.8
		c0.1-1.7,0.1-3.5,0.2-5.2c0.6-9.3,1.6-18.6,3.3-27.8c63.9,32.6,125.6,68.3,186.2,106.8C283.4,247,342,296.5,404.7,341
		C390.6,341.4,376.6,341,362.6,340.1z M426.3,339.4c-53-55-123.8-97.8-187.7-138.5c-65-41.4-133.9-79.3-205.3-108.9
		c2.7-12.1,6.7-23.8,12.4-34.8c0.2,0.5,0.5,0.9,1,1.3c59.2,55.9,132.1,96,201.8,136.9c37.6,22.1,75.8,43.4,113.4,65.4
		c33.7,19.7,65,44.9,99.5,62.9c1.4,0.7,2.8,0.9,3.9,0.6C455.4,333.6,441.6,337.5,426.3,339.4z M469.4,320.1c0.3-1.6,0-3.3-1.2-4.9
		c-44.8-54-128.2-86.4-188.3-119.5C201.2,152.3,123.1,108.9,53,52.3c-1.3-1.1-2.8-1.2-4.2-0.9c0.1-0.1,0.1-0.2,0.2-0.3
		c3.2-5.3,7.3-9.5,12.1-13c146.6,77.4,276.9,178.3,417,266C476,310.6,473,315.8,469.4,320.1z M482.3,287.6
		C349.2,196.6,214.8,101.2,67.6,34.3c16.1-8.3,37.4-9.8,55.8-10.1c48.4,46.8,107.1,82,164.9,115.9c67.4,39.5,131.2,82.9,197,124.4
		C484.6,272.2,483.8,279.9,482.3,287.6z M320.1,141C256.3,105.4,194,69.1,136.6,24.2c1.2,0,2.4,0,3.5,0c10.9,0,21.7,0.6,32.5,1.3
		c47.6,35.6,105.9,58.8,158.9,85c48.3,23.8,120.4,49.9,153.7,96.2c0.2,4.9,0.4,9.5,0.6,13.6c0.5,8.3,0.6,16.6,0.5,24.9
		C439.7,201.3,374.7,171.5,320.1,141z"/>
</g>
</svg>
